<svg width="138" height="200" viewBox="0 0 138 200" fill="none" xmlns="http://www.w3.org/2000/svg">
<g clip-path="url(#clip0_1_91)">
<path fill-rule="evenodd" clip-rule="evenodd" d="M62.3584 164.209C77.2803 163.957 83.9107 167.943 95.539 169.846C108.906 172.033 129.956 171.678 134.484 176.008C139.583 180.885 132.497 187.262 118.745 192.035C105.094 196.774 102 200.143 64.9531 200.143C48.252 200.359 39.5083 200.681 28 198C17.7521 195.612 5.15507 189.459 2.32336 185.551C-0.952673 181.031 1.41043 175.527 13.5056 171.227C25.6318 166.916 45.0635 164.5 62.3584 164.209Z" fill="#4A3620"/>
<path fill-rule="evenodd" clip-rule="evenodd" d="M115.775 172.028C113.738 171.948 111.245 172.791 110.001 171.428C108.756 170.065 110.057 168.186 110.826 166.607C111.42 165.387 112.332 164.344 113.739 163.757C115.231 163.133 116.91 162.928 118.487 163.408C120.384 163.985 122.246 164.931 122.879 166.538C123.594 168.352 123.494 170.606 121.83 171.892C120.274 173.094 117.898 172.111 115.775 172.028Z" fill="#C4C4C4" stroke="#939393" stroke-width="2"/>
<path fill-rule="evenodd" clip-rule="evenodd" d="M86.0651 162.212C84.8855 157.951 86.9551 153.24 90.2846 150.331C93.3814 147.625 97.8533 147.462 101.854 148.416C105.237 149.223 107.268 152.115 109.375 154.882C111.877 158.169 115.834 161.375 114.753 165.361C113.642 169.456 108.881 171.354 104.705 172.1C101.299 172.708 98.4583 170.438 95.4022 168.817C91.8588 166.937 87.1353 166.077 86.0651 162.212Z" fill="#C4C4C4" stroke="#939393" stroke-width="2"/>
<path fill-rule="evenodd" clip-rule="evenodd" d="M31.7101 171.666C26.6731 171.783 20.6426 174.048 17.3781 171.156C14.1109 168.263 17.0513 163.836 18.7229 160.165C20.015 157.327 22.1159 154.842 25.5025 153.312C29.0953 151.69 33.2088 150.982 37.1681 151.834C41.9327 152.859 46.663 154.72 48.4553 158.25C50.4788 162.236 50.5535 167.334 46.6316 170.476C42.9649 173.414 36.9613 171.544 31.7101 171.666Z" fill="#C4C4C4" stroke="#939393" stroke-width="2"/>
<path fill-rule="evenodd" clip-rule="evenodd" d="M21.4855 180.05C19.308 180.104 16.6974 180.991 15.291 179.877C13.8835 178.762 15.1619 177.042 15.8906 175.617C16.4538 174.516 17.3661 173.55 18.8326 172.952C20.3883 172.318 22.1677 172.037 23.8778 172.36C25.9357 172.749 27.9774 173.462 28.7463 174.827C29.6143 176.367 29.6382 178.341 27.9376 179.565C26.3477 180.709 23.7556 179.994 21.4855 180.05Z" fill="#C4C4C4" stroke="#939393" stroke-width="2"/>
<path fill-rule="evenodd" clip-rule="evenodd" d="M65.0985 164.011C74.3149 164.173 78.5236 168.34 85.7637 170.562C94.0863 173.118 107.088 173.346 110.006 177.798C113.293 182.812 115.915 192.582 107.547 196.972C99.2403 201.329 90.5957 201.018 67.6966 199.993C57.3795 199.746 42.7773 202.535 35.5898 199.537C29.1894 196.868 30.4392 187.661 28.5808 183.678C26.4308 179.07 27.7392 173.635 35.0964 169.673C42.4724 165.701 54.4164 163.824 65.0985 164.011Z" fill="#4A3620"/>
<path fill-rule="evenodd" clip-rule="evenodd" d="M108.014 181.693C104.615 181.571 100.463 182.634 98.3741 180.867C96.284 179.099 98.4371 176.691 99.7058 174.665C100.687 173.099 102.199 171.764 104.54 171.02C107.025 170.232 109.825 169.983 112.46 170.616C115.632 171.377 118.748 172.612 119.82 174.687C121.029 177.03 120.882 179.933 118.117 181.573C115.532 183.107 111.558 181.819 108.014 181.693Z" fill="#C4C4C4" stroke="#939393" stroke-width="2"/>
<path fill-rule="evenodd" clip-rule="evenodd" d="M93.3027 158.835C97.7417 158.222 102.732 157.618 105.896 160.469C109.037 163.299 108.581 167.903 107.866 171.958C107.219 175.636 105.703 179.35 102.227 181.299C98.8882 183.171 94.9573 182.061 91.1939 181.306C86.6659 180.398 81.0932 180.452 79.0319 176.646C76.8386 172.597 78.7413 167.52 81.7162 163.808C84.3848 160.477 88.8936 159.444 93.3027 158.835Z" fill="#C4C4C4" stroke="#939393" stroke-width="2"/>
<path fill-rule="evenodd" clip-rule="evenodd" d="M84.9591 165.516C87.9827 166.538 90.3685 168.656 91.8084 171.45C93.5923 174.911 95.8447 179.181 93.6081 182.297C91.3989 185.375 86.6004 184.038 82.7127 184.123C79.3551 184.196 75.8743 184.791 73.2069 182.744C70.1037 180.361 67.4813 176.689 68.1584 172.949C68.8109 169.344 72.8026 167.68 76.2062 166.174C78.9925 164.942 82.0265 164.524 84.9591 165.516Z" fill="#C4C4C4" stroke="#939393" stroke-width="2"/>
<path fill-rule="evenodd" clip-rule="evenodd" d="M62.6096 154.624C67.7939 155.743 72.1282 158.801 75.0259 163.163C78.6158 168.567 83.13 175.224 80.015 180.825C76.9383 186.356 68.7637 185.053 62.358 185.938C56.8258 186.702 51.1871 188.355 46.4007 185.466C40.832 182.105 35.818 176.512 36.2411 170.174C36.6487 164.066 42.9326 160.541 48.2746 157.39C52.6476 154.811 57.5814 153.539 62.6096 154.624Z" fill="#C4C4C4" stroke="#939393" stroke-width="2"/>
<path fill-rule="evenodd" clip-rule="evenodd" d="M51.1076 170.116C53.1608 174.222 53.7917 179.56 50.9177 183.254C48.2655 186.661 43.1507 185.736 38.8215 185.904C35.5478 186.031 32.3721 185.897 29.7078 184.076C26.5133 181.893 23.2873 179.093 23.2155 175.241C23.1383 171.105 25.8402 167.337 29.3516 164.985C32.7703 162.694 36.9902 162.413 40.9633 163.351C45.1632 164.341 49.2095 166.321 51.1076 170.116Z" fill="#C4C4C4" stroke="#939393" stroke-width="2"/>
</g>
<defs>
<clipPath id="clip0_1_91">
<rect width="137.294" height="200" fill="white"/>
</clipPath>
</defs>
</svg>
