<svg width="60" height="102" viewBox="0 0 60 102" fill="none" xmlns="http://www.w3.org/2000/svg">
<path d="M30 1C46.0163 1 59 13.9837 59 30V97C59 99.2091 57.2091 101 55 101H5C2.79086 101 1 99.2091 1 97V30C1 13.9837 13.9837 1 30 1Z" fill="#C1A284" stroke="#9D7B59" stroke-width="2"/>
<path d="M38 33.2C42.2965 33.2 46.1369 34.0728 48.8662 35.4373C51.6553 36.8319 53 38.5737 53 40.2C53 41.8263 51.6553 43.5681 48.8662 44.9627C46.1369 46.3273 42.2965 47.2 38 47.2C33.7035 47.2 29.8631 46.3273 27.1338 44.9627C24.3447 43.5681 23 41.8263 23 40.2C23 38.5737 24.3447 36.8319 27.1338 35.4373C29.8631 34.0728 33.7035 33.2 38 33.2Z" fill="#EBBFD9" stroke="#DCB3CB" stroke-width="2"/>
<ellipse cx="29.7" cy="25.2" rx="2.4" ry="7.2" fill="#1E1E1E"/>
<ellipse cx="29.7001" cy="21.6" rx="1.2" ry="2.4" fill="#EAEAEA"/>
<ellipse cx="45.3" cy="25.2" rx="2.4" ry="7.2" fill="#1E1E1E"/>
<ellipse cx="45.3" cy="21.6" rx="1.2" ry="2.4" fill="#EAEAEA"/>
<path d="M37.4542 36.4711C37.9791 36.4711 38.5039 36.4711 39.0287 36.4711C39.7439 36.4711 40.5055 36.395 41.2154 36.4838C41.6285 36.5354 42.0342 36.6494 42.446 36.6952C42.6859 36.7218 43.0039 36.7561 43.2348 36.8245C43.7379 36.9736 44.2709 37.0247 44.7683 37.1969C45.2214 37.3537 45.6528 37.5074 46.1157 37.6102C46.9858 37.8036 47.7649 38.2698 48.4475 38.8282C48.7575 39.0819 49.0429 39.379 49.353 39.6202C49.4862 39.7237 49.5962 39.8223 49.7096 39.9483C49.774 40.0199 49.8926 40.3504 49.8926 40.3333" stroke="white" stroke-opacity="0.1" stroke-width="4" stroke-linecap="round"/>
</svg>
