<svg width="138" height="200" viewBox="0 0 138 200" fill="none" xmlns="http://www.w3.org/2000/svg">
<g clip-path="url(#clip0_8_132)">
<path fill-rule="evenodd" clip-rule="evenodd" d="M62.3584 164.209C77.2803 163.957 83.9107 167.943 95.539 169.846C108.906 172.033 129.956 171.678 134.484 176.008C139.583 180.885 132.497 187.262 118.745 192.035C105.094 196.774 102 200.143 64.9531 200.143C48.252 200.359 39.5083 200.681 28 198C17.7521 195.612 5.15507 189.459 2.32336 185.551C-0.952673 181.031 1.41043 175.527 13.5056 171.227C25.6318 166.916 45.0635 164.5 62.3584 164.209Z" fill="#4A3620"/>
<path fill-rule="evenodd" clip-rule="evenodd" d="M115.775 172.031C113.738 171.951 111.245 172.794 110.001 171.431C108.756 170.067 110.057 168.188 110.826 166.61C111.42 165.389 112.332 164.347 113.739 163.759C115.231 163.136 116.91 162.931 118.487 163.411C120.384 163.988 122.246 164.934 122.879 166.54C123.594 168.354 123.494 170.609 121.83 171.895C120.274 173.097 117.898 172.114 115.775 172.031Z" fill="#C4C4C4" stroke="#939393" stroke-width="2"/>
<path fill-rule="evenodd" clip-rule="evenodd" d="M86.0651 162.214C84.8855 157.953 86.9551 153.243 90.2846 150.334C93.3814 147.628 97.8533 147.465 101.854 148.419C105.237 149.225 107.268 152.117 109.375 154.885C111.877 158.172 115.834 161.377 114.753 165.364C113.642 169.459 108.881 171.356 104.705 172.102C101.299 172.711 98.4583 170.441 95.4022 168.82C91.8588 166.94 87.1353 166.08 86.0651 162.214Z" fill="#C4C4C4" stroke="#939393" stroke-width="2"/>
<path fill-rule="evenodd" clip-rule="evenodd" d="M31.7101 171.669C26.6731 171.786 20.6426 174.05 17.3781 171.159C14.1109 168.266 17.0513 163.839 18.7229 160.167C20.015 157.329 22.1159 154.844 25.5025 153.315C29.0953 151.692 33.2088 150.985 37.1681 151.837C41.9327 152.862 46.663 154.722 48.4553 158.253C50.4788 162.239 50.5535 167.337 46.6316 170.479C42.9649 173.417 36.9613 171.547 31.7101 171.669Z" fill="#C4C4C4" stroke="#939393" stroke-width="2"/>
<path fill-rule="evenodd" clip-rule="evenodd" d="M21.4855 180.053C19.308 180.107 16.6974 180.994 15.291 179.879C13.8835 178.764 15.1619 177.045 15.8906 175.62C16.4538 174.519 17.3661 173.553 18.8326 172.955C20.3883 172.32 22.1677 172.04 23.8778 172.363C25.9357 172.752 27.9774 173.465 28.7463 174.829C29.6143 176.37 29.6382 178.344 27.9376 179.567C26.3477 180.711 23.7556 179.997 21.4855 180.053Z" fill="#C4C4C4" stroke="#939393" stroke-width="2"/>
<path d="M66.1245 142.579H70.7397C85.4815 142.579 97.4321 154.529 97.4321 169.271C97.4321 175.516 92.3695 180.579 86.1245 180.579H50.7397C44.4947 180.579 39.4322 175.516 39.4321 169.271C39.4321 154.529 51.3828 142.579 66.1245 142.579Z" fill="#C1A284" stroke="#9D7B59" stroke-width="2"/>
<path fill-rule="evenodd" clip-rule="evenodd" d="M64.0985 164.011C73.3149 164.173 77.5236 168.34 84.7637 170.562C93.0863 173.118 106.088 173.346 109.006 177.798C112.293 182.812 114.915 192.582 106.547 196.972C98.2403 201.329 89.5957 201.018 66.6966 199.993C56.3795 199.746 41.7773 202.535 34.5898 199.537C28.1894 196.868 29.4392 187.661 27.5808 183.678C25.4308 179.07 26.7392 173.635 34.0964 169.673C41.4724 165.701 53.4164 163.824 64.0985 164.011Z" fill="#4A3620"/>
<path fill-rule="evenodd" clip-rule="evenodd" d="M108.014 181.695C104.615 181.574 100.463 182.636 98.3741 180.87C96.284 179.102 98.4371 176.693 99.7058 174.667C100.687 173.101 102.199 171.767 104.54 171.023C107.025 170.234 109.825 169.986 112.46 170.618C115.632 171.379 118.748 172.614 119.82 174.69C121.029 177.033 120.882 179.935 118.117 181.576C115.532 183.11 111.558 181.822 108.014 181.695Z" fill="#C4C4C4" stroke="#939393" stroke-width="2"/>
<path fill-rule="evenodd" clip-rule="evenodd" d="M93.3027 158.838C97.7417 158.225 102.732 157.62 105.896 160.471C109.037 163.301 108.581 167.906 107.866 171.961C107.219 175.639 105.703 179.352 102.227 181.301C98.8882 183.174 94.9573 182.064 91.1939 181.309C86.6659 180.401 81.0932 180.455 79.0319 176.649C76.8386 172.6 78.7413 167.523 81.7162 163.81C84.3848 160.479 88.8936 159.447 93.3027 158.838Z" fill="#C4C4C4" stroke="#939393" stroke-width="2"/>
<path fill-rule="evenodd" clip-rule="evenodd" d="M84.9591 165.518C87.9827 166.541 90.3685 168.658 91.8084 171.452C93.5923 174.913 95.8447 179.184 93.6081 182.3C91.3989 185.378 86.6004 184.04 82.7127 184.125C79.3551 184.199 75.8743 184.794 73.2069 182.746C70.1037 180.364 67.4813 176.692 68.1584 172.951C68.8109 169.347 72.8026 167.683 76.2062 166.177C78.9925 164.944 82.0265 164.527 84.9591 165.518Z" fill="#C4C4C4" stroke="#939393" stroke-width="2"/>
<path fill-rule="evenodd" clip-rule="evenodd" d="M62.6096 154.626C67.7939 155.745 72.1282 158.804 75.0259 163.166C78.6158 168.57 83.13 175.227 80.015 180.827C76.9383 186.359 68.7637 185.056 62.358 185.94C56.8258 186.704 51.1871 188.358 46.4007 185.469C40.832 182.108 35.818 176.515 36.2411 170.176C36.6487 164.069 42.9326 160.543 48.2746 157.393C52.6476 154.814 57.5814 153.541 62.6096 154.626Z" fill="#C4C4C4" stroke="#939393" stroke-width="2"/>
<path fill-rule="evenodd" clip-rule="evenodd" d="M51.1076 170.119C53.1608 174.224 53.7917 179.563 50.9177 183.256C48.2655 186.664 43.1507 185.739 38.8215 185.907C35.5478 186.034 32.3721 185.899 29.7078 184.079C26.5133 181.896 23.2873 179.095 23.2155 175.243C23.1383 171.108 25.8402 167.34 29.3516 164.987C32.7703 162.697 36.9902 162.416 40.9633 163.353C45.1632 164.344 49.2095 166.324 51.1076 170.119Z" fill="#C4C4C4" stroke="#939393" stroke-width="2"/>
</g>
<defs>
<clipPath id="clip0_8_132">
<rect width="137.294" height="200" fill="white"/>
</clipPath>
</defs>
</svg>
